<svg xmlns="http://www.w3.org/2000/svg" width="20" height="30" viewBox="0 0 20 30">
  <g id="dollar-sign-symbol-bold-text-svgrepo-com" transform="translate(-7.11)">
    <path id="Path_279" data-name="Path 279" d="M27.11,19.451c0,3.271-2.826,6.065-7.983,6.8V30H14.733V26.511A21.32,21.32,0,0,1,7.11,24.93l1.346-4.3A18.546,18.546,0,0,0,15.9,22.245c2.555,0,4.3-.811,4.3-2.281,0-1.4-1.434-2.285-4.755-3.2-4.8-1.324-8.071-3.162-8.071-6.726,0-3.238,2.781-5.771,7.579-6.546V0H19.35V3.235a19.075,19.075,0,0,1,6.5,1.213l-1.3,4.158A17.467,17.467,0,0,0,18.1,7.352c-2.915,0-3.857,1.029-3.857,2.06,0,1.213,1.57,1.983,5.38,3.162C24.96,14.117,27.11,16.139,27.11,19.451Z" transform="translate(0)" fill="#faf9f6"/>
  </g>
</svg>
