<svg xmlns="http://www.w3.org/2000/svg" width="30" height="30" viewBox="0 0 30 30">
  <g id="piggy-bank-with-coin-svgrepo-com" transform="translate(-22.563 -139.506)">
    <g id="Group_1" data-name="Group 1" transform="translate(22.563 139.506)">
      <path id="Path_277" data-name="Path 277" d="M49.02,148.807a14.142,14.142,0,0,0-4.071-2.428,5.03,5.03,0,0,1-1.781,1.564,11.587,11.587,0,0,1,1.244.463.7.7,0,0,1,.336,1.008h0a.788.788,0,0,1-.985.29,13.6,13.6,0,0,0-7.068-.788.764.764,0,0,1-.856-.539v0a.722.722,0,0,1,.629-.877c.241-.035.533-.07.86-.1q-.148-.12-.285-.249a4.781,4.781,0,0,1-1.1-1.528c-.027-.061-.054-.124-.078-.185-.4.064-.805.144-1.2.236a12,12,0,0,0-6.633-1.1.955.955,0,0,0-.816,1.372l1.376,2.648a10.829,10.829,0,0,0-3.333,4.49l-1.679-.006a.989.989,0,0,0-1.023.957v3.535a.952.952,0,0,0,.547.849l2.178,1.066a11.589,11.589,0,0,0,5.284,5.775v3.13a1.156,1.156,0,0,0,1.189,1.117h3.051a1.2,1.2,0,0,0,1.091-.67l.765-1.65a17.424,17.424,0,0,0,2.015.115,17.7,17.7,0,0,0,3.14-.278v1.366a1.156,1.156,0,0,0,1.189,1.117H46.05a1.2,1.2,0,0,0,1.05-.59,94.354,94.354,0,0,0,4.672-8.7,9.561,9.561,0,0,0,.751-4.684A10.125,10.125,0,0,0,49.02,148.807Zm-18.254,5.938a1.439,1.439,0,1,1,1.529-1.436A1.483,1.483,0,0,1,30.766,154.745Z" transform="translate(-22.563 -139.506)" fill="#faf9f6"/>
      <path id="Path_278" data-name="Path 278" d="M437.724,9.652a5.013,5.013,0,0,0,1.84.348,4.867,4.867,0,0,0,.928-.087,4.995,4.995,0,1,0-2.768-.261Z" transform="translate(-419.562 0)" fill="#faf9f6"/>
    </g>
  </g>
</svg>
